# AST/ASF file generated using VICON BodyLanguage
# -----------------------------------------------
:version 1.10
:name VICON
:units
  mass 1.0
  length 0.45
  angle deg
:documentation
   .ast/.asf automatically generated from VICON data using
   VICON BodyBuilder and BodyLanguage model FoxedUp or BRILLIANT.MOD
:root
   order TX TY TZ RX RY RZ
   axis XYZ
   position 0 0 0  
   orientation 0 0 0 
:bonedata
  begin
     id 1 
     name lhipjoint
     direction 0.635376 -0.686425 0.353719 
     length 2.47244 
     axis 0 0 0  XYZ
  end
  begin
     id 2 
     name lfemur
     direction 0.34202 -0.939693 0  
     length 7.25268  
     axis 0 0 20  XYZ
    dof rx ry rz
    limits (-160.0 20.0)
           (-70.0 70.0)
           (-60.0 70.0)
  end
  begin
     id 3 
     name ltibia
     direction 0.34202 -0.939693 0   
     length 7.6767   
     axis 0 0 20   XYZ
    dof rx
    limits (-10.0 170.0)
  end
  begin
     id 4 
     name lfoot
     direction 0.0803374 -0.220725 0.972022   
     length 2.22945   
     axis -90 7.62852e-016 20   XYZ
    dof rx rz
    limits (-45.0 90.0)
           (-70.0 20.0)
  end
  begin
     id 5 
     name ltoes
     direction 1.53579e-011 -4.21994e-011 1   
     length 1.11848   
     axis -90 7.62852e-016 20   XYZ
    dof rx
    limits (-90.0 20.0)
  end
  begin
     id 6 
     name rhipjoint
     direction -0.664428 -0.664335 0.342336   
     length 2.55466  
     axis 0 0 0  XYZ 
  end
  begin
     id 7 
     name rfemur
     direction -0.34202 -0.939693 0   
     length 6.83172   
     axis 0 0 -20   XYZ
    dof rx ry rz
    limits (-160.0 20.0)
           (-70.0 70.0)
           (-70.0 60.0)
  end
  begin
     id 8 
     name rtibia
     direction -0.34202 -0.939693 0   
     length 7.62692   
     axis 0 0 -20   XYZ
    dof rx
    limits (-10.0 170.0)
 end
 begin
     id 9 
     name rfoot
     direction -0.0949276 -0.260811 0.960711   
     length 2.19684  
     axis -90 -7.62852e-016 -20   XYZ
    dof rx rz
    limits (-45.0 90.0)
           (-20.0 70.0)
  end
  begin
     id 10 
     name rtoes
     direction -1.53543e-011 -4.2183e-011 1   
     length 1.09848   
     axis -90 -7.62852e-016 -20   XYZ
    dof rx
    limits (-90.0 20.0)
  end
  begin
     id 11 
     name lowerback
     direction 0.0118782 0.999815 -0.0151555   
     length 2.15772   
     axis 0 0 0   XYZ
    dof rx ry rz
    limits (-20.0 45.0)
           (-30.0 30.0)
           (-30.0 30.0)
  end
  begin
     id 12 
     name upperback
     direction 0.00130825 0.999065 0.0432113   
     length 2.14863   
     axis 0 0 0   XYZ
    dof rx ry rz
    limits (-20.0 45.0)
           (-30.0 30.0)
           (-30.0 30.0)
  end
  begin
     id 13 
     name thorax
     direction -0.00347005 0.998773 0.0494011   
     length 2.14936   
     axis 0 0 0   XYZ
    dof rx ry rz
    limits (-20.0 45.0)
           (-30.0 30.0)
           (-30.0 30.0)
  end
  begin
     id 14 
     name lowerneck
     direction -0.0262159 0.99424 0.103921   
     length 1.69373   
     axis 0 0 0   XYZ
    dof rx ry rz
    limits (-20.0 45.0)
           (-30.0 30.0)
           (-30.0 30.0)
  end
  begin
     id 15 
     name upperneck
     direction 0.0353511 0.977394 -0.20845   
     length 1.70857   
     axis 0 0 0   XYZ
    dof rx ry rz
    limits (-20.0 45.0)
           (-30.0 30.0)
           (-30.0 30.0)
  end
  begin
     id 16
     name head
     direction 0.0139214 0.996594 -0.0812836  
     length 1.72777  
     axis 0 0 0   XYZ
    dof rx ry rz
    limits (-20.0 45.0)
           (-30.0 30.0)
           (-30.0 30.0)
  end
  begin
     id 17 
     name lclavicle
     direction 0.841247 0.537205 -0.0609508  
     length 3.55371  
     axis 0 0 0   XYZ
    dof ry rz
    limits (-20.0 10.0)
           (0.0 20.0)
  end
  begin
     id 18 
     name lhumerus
     direction 1 -4.48964e-011 1.60116e-018   
     length 4.91377   
     axis -180 -30 -90   XYZ
    dof rx ry rz
    limits (-60.0 90.0)
           (-90.0 90.0)
           (-90.0 90.0)
  end
  begin
     id 19
     name lradius
     direction 1 -4.48989e-011 -8.93847e-027   
     length 3.00291   
     axis -180 -30 -90   XYZ
    dof rx
    limits (-10.0 170.0)
  end
  begin
     id 20
     name lwrist
     direction 1 -4.48932e-011 -7.31504e-027   
     length 1.50145   
     axis 5.74121e-015 90 90   XYZ
    dof ry
    limits (-180.0 0.0)
 end
  begin
     id 21 
     name lhand
     direction 1 -4.48971e-011 -1.46301e-026   
     length 0.450922   
     axis 9.33524e-015 90 90   XYZ
    dof rx rz
    limits (-90.0 90.0)
           (-45.0 45.0)
  end
  begin
     id 22 
     name lfingers
     direction 1 -4.49039e-011 -2.92602e-026   
     length 0.363545   
     axis 1.86705e-014 90 90   XYZ
    dof rx
    limits (0.0 90.0)
  end
  begin
     id 23
     name lthumb
     direction 0.707107 -6.34941e-011 0.707107   
     length 0.52198   
     axis -90 45 2.85299e-015   XYZ
    dof rx rz
    limits (-45.0 45.0)
           (-45.0 45.0)
  end
  begin
     id 24 
     name rclavicle
     direction -0.825079 0.56158 -0.0622297   
     length 3.39909  
     axis 0 0 0   XYZ 
    dof ry rz
    limits (-10.0 20.0)
           (-20.0 0.0)
  end
  begin
     id 25 
     name rhumerus
     direction -1 -4.48965e-011 1.61691e-027  
     length 4.86725   
     axis -180 30 90   XYZ
    dof rx ry rz
    limits (-90.0 60.0)
           (-90.0 90.0)
           (-90.0 90.0)
  end
  begin
     id 26 
     name rradius
     direction -1 -4.48964e-011 -2.25776e-027   
     length 3.17144   
     axis -180 30 90   XYZ
    dof rx
    limits (-10.0 170.0)
  end
  begin
     id 27 
     name rwrist
     direction -1 -4.48961e-011 -7.31504e-027   
     length 1.58572   
     axis 5.74121e-015 -90 -90   XYZ
    dof ry
    limits (-180.0 0.0)
  end
  begin
     id 28
     name rhand
     direction -1 -4.49013e-011 -1.46301e-026   
     length 0.419368   
     axis 9.33524e-015 -90 -90   XYZ
    dof rx rz
    limits (-90.0 90.0)
           (-45.0 45.0)
  end
  begin
     id 29
     name rfingers
     direction -1 -4.489e-011 -2.92602e-026   
     length 0.338105   
     axis 1.86705e-014 -90 -90   XYZ
    dof rx
    limits (0.0 90.0)
  end
  begin
     id 30
     name rthumb
     direction -0.707107 -6.35022e-011 0.707107   
     length 0.485453   
     axis -90 -45 -2.85299e-015   XYZ
    dof rx rz
    limits (-45.0 45.0)
           (-45.0 45.0)
  end
:hierarchy
  begin
    root lhipjoint rhipjoint lowerback
    lhipjoint lfemur
    lfemur ltibia
    ltibia lfoot
    lfoot ltoes
    rhipjoint rfemur
    rfemur rtibia
    rtibia rfoot
    rfoot rtoes
    lowerback upperback
    upperback thorax
    thorax lowerneck lclavicle rclavicle
    lowerneck upperneck
    upperneck head
    lclavicle lhumerus
    lhumerus lradius
    lradius lwrist
    lwrist lhand lthumb
    lhand lfingers
    rclavicle rhumerus
    rhumerus rradius
    rradius rwrist
    rwrist rhand rthumb
    rhand rfingers
  end

#!OML:ASF H:\Swim 2\Project 1\Capture day 1\Session 1\male.ASF
:FULLY-SPECIFIED
:DEGREES
385
root 2.06274 13.8012 9.37513 62.5905 -14.7995 177.293
lowerback 39.7042 1.00891 -1.22972
upperback 5.34846 -0.501919 2.75686
thorax -13.4161 -0.919954 4.07214
lowerneck -9.10162 12.5669 -13.4636
upperneck 26.9561 20.4112 -16.6792
head 11.1125 3.06561 -2.1026
rclavicle -7.39479e-014 9.10434e-014
rhumerus -351.59 -46.1032 -77.767
rradius 13.5716
rwrist 389.011
rhand -6.19738 -22.429
rfingers 7.12502
rthumb 19.6426 -51.4567
lclavicle -7.39479e-014 9.10434e-014
lhumerus -357.845 32.2478 -36.1127
lradius 35.4988
lwrist -356.483
lhand 12.7411 9.69704
lfingers 7.12502
lthumb 37.7213 35.5716
rfemur 35.0371 7.50509 38.4706
rtibia 0.931373
rfoot 38.2571 -8.13766
rtoes 17.2189
lfemur 37.3894 -6.44286 -20.1596
ltibia 31.8443
lfoot 26.6913 -3.34664
ltoes 22.4634
386
root 2.02517 13.8049 9.38944 62.5757 -14.8797 177.534
lowerback 39.5868 0.992977 -1.2652
upperback 5.36394 -0.520464 2.81372
thorax -13.3568 -0.924267 4.15828
lowerneck -8.74146 12.2806 -13.7157
upperneck 25.8406 19.79 -16.7822
head 10.5654 3.04816 -2.134
rclavicle -1.90833e-014 -7.35503e-015
rhumerus -349.482 -45.2157 -79.1575
rradius 13.5339
rwrist 388.689
rhand -6.29543 -22.5621
rfingers 7.12502
rthumb 19.5483 -51.5994
lclavicle -1.90833e-014 -7.35503e-015
lhumerus -359.17 28.5081 -36.1873
lradius 35.5135
lwrist -355.181
lhand 13.5052 9.7136
lfingers 7.12502
lthumb 38.4428 35.391
rfemur 35.0166 7.43404 38.105
rtibia -6.04305e-014
rfoot 37.8673 -8.67167
rtoes 17.6081
lfemur 37.8703 -6.2532 -20.0554
ltibia 32.2746
lfoot 27.9177 -3.66096
ltoes 23.4949
387
root 1.98593 13.808 9.39677 62.4454 -14.9693 177.78
lowerback 39.6126 1.00501 -1.36163
upperback 5.39297 -0.538829 2.90679
thorax -13.332 -0.932036 4.31986
lowerneck -8.41298 11.979 -14.1368
upperneck 24.7163 19.1516 -16.8022
head 10.0111 3.01044 -2.11524
rclavicle 1.66979e-014 1.04362e-014
rhumerus -347.449 -44.1587 -80.3904
rradius 13.5027
rwrist 388.249
rhand -6.34005 -22.724
rfingers 7.12502
rthumb 19.5054 -51.7656
lclavicle 1.66979e-014 1.04362e-014
lhumerus -360.498 24.8573 -36.0751
lradius 35.6636
lwrist -353.555
lhand 14.3079 10.0717
lfingers 7.12502
lthumb 39.1998 35.5342
rfemur 34.6964 7.31471 37.756
rtibia -3.65764e-014
rfoot 36.9218 -9.15836
rtoes 18.2225
lfemur 38.333 -6.01052 -19.8914
ltibia 32.7777
lfoot 28.9012 -3.70156
ltoes 24.7599
388
root 1.94536 13.8107 9.39942 62.2164 -15.103 178.031
lowerback 39.7618 1.05342 -1.54122
upperback 5.43218 -0.555328 3.02128
thorax -13.3385 -0.94032 4.55127
lowerneck -8.17342 11.6947 -14.5601
upperneck 23.7632 18.5872 -16.8112
head 9.55503 2.95731 -2.08942
rclavicle -2.94201e-014 -7.90169e-015
rhumerus -345.491 -43.0046 -81.487
rradius 13.4876
rwrist 387.786
rhand -6.35628 -22.9114
rfingers 7.12502
rthumb 19.4898 -51.9546
lclavicle -2.94201e-014 -7.90169e-015
lhumerus -361.827 21.4008 -35.757
lradius 35.9218
lwrist -351.747
lhand 15.1696 10.7458
lfingers 7.12502
lthumb 40.0113 35.9685
rfemur 34.5627 7.17963 37.3829
rtibia -3.65764e-014
rfoot 35.8092 -9.63181
rtoes 18.9129
lfemur 38.7581 -5.71857 -19.7173
ltibia 33.3536
lfoot 29.736 -3.9132
ltoes 25.2964
389
root 1.90273 13.8134 9.39639 61.8672 -15.2763 178.279
lowerback 40.0466 1.13995 -1.78417
upperback 5.48942 -0.563731 3.15109
thorax -13.3711 -0.948698 4.83282
lowerneck -8.05803 11.446 -14.8647
upperneck 23.0933 18.1524 -16.8683
head 9.25673 2.89402 -2.08863
rclavicle 0 2.95692e-014
rhumerus -343.554 -41.887 -82.5189
rradius 13.4654
rwrist 387.449
rhand -6.35965 -23.1203
rfingers 7.12502
rthumb 19.4866 -52.1638
lclavicle 0 2.95692e-014
lhumerus -363.145 18.1079 -35.2594
lradius 36.2234
lwrist -349.757
lhand 16.0786 11.7048
lfingers 7.12502
lthumb 40.866 36.6636
rfemur 34.6468 7.02573 37.0008
rtibia 4.21423e-014
rfoot 34.4976 -10.0876
rtoes 19.6562
lfemur 39.171 -5.38001 -19.5391
ltibia 34.0014
lfoot 30.4191 -4.19685
ltoes 25.273
